Coordinates
version=1
nRows=14
nColumns=36
inDegrees=yes

Units are S.I. units (second, meters, Newtons, ...)
If the header above contains a line with 'inDegrees', this indicates whether rotational values are in degrees (yes) or radians (no).

endheader
time	pelvis_tilt	pelvis_list	pelvis_rotation	pelvis_tx	pelvis_ty	pelvis_tz	hip_flexion_r	hip_adduction_r	hip_rotation_r	knee_angle_r	knee_angle_r_beta	ankle_angle_r	subtalar_angle_r	mtp_angle_r	hip_flexion_l	hip_adduction_l	hip_rotation_l	knee_angle_l	knee_angle_l_beta	ankle_angle_l	subtalar_angle_l	mtp_angle_l	lumbar_extension	lumbar_bending	lumbar_rotation	arm_flex_r	arm_add_r	arm_rot_r	elbow_flex_r	pro_sup_r	arm_flex_l	arm_add_l	arm_rot_l	elbow_flex_l	pro_sup_l
      4.43333330	    -19.02290020	      0.11392073	      0.14828952	     -0.20028800	      1.04192033	     -0.46564067	     36.81280015	     -2.85701683	     -6.21620737	     28.24085225	      0.49289586	      8.32874529	    -11.87672405	     -7.49999987	     36.33815394	     -7.51906875	     -7.54770238	     26.47170477	      0.46201841	      4.98798513	      3.39094000	     -7.49999987	    -19.01083237	      3.77196719	      2.41629164	    170.05674941	   -161.12036423	    201.67798951	     32.43176189	     68.21950158	    193.25005619	   -169.56039865	    216.14221915	     77.22384421	     91.65419729
      4.43750000	    -18.70101173	      0.07764604	      0.20564921	     -0.19855787	      1.04300500	     -0.46532054	     36.07777663	     -2.79173213	     -6.31410950	     27.74819585	      0.48429738	      8.29444345	    -11.91382618	     -7.49999987	     35.63352544	     -7.49367408	     -7.50742083	     25.96711253	      0.45321161	      5.00327904	      3.52607177	     -7.49999987	    -18.79248488	      3.89916044	      2.39319756	    169.68916669	   -161.45739558	    202.50860821	     32.23819900	     68.25496131	    193.17658611	   -169.79579075	    216.59947839	     77.13770717	     92.34588701
      4.44166670	    -18.50292248	      0.05653033	      0.26623499	     -0.19699628	      1.04422396	     -0.46499192	     35.51602966	     -2.75361314	     -6.42923381	     27.32301871	      0.47687664	      8.29966025	    -11.78741381	     -7.49999987	     35.07862588	     -7.46448820	     -7.51176597	     25.47623162	      0.44464412	      4.98218612	      3.66979589	     -7.49999987	    -18.38662663	      3.98081064	      2.48233749	    169.30874203	   -161.65680416	    204.25618000	     31.99613198	     68.24902243	    193.33897513	   -169.98128145	    217.64393744	     76.79566590	     92.66470954
      4.44583330	    -18.24128158	      0.00279380	      0.36699430	     -0.19535860	      1.04504866	     -0.46472842	     34.86108488	     -2.69642716	     -6.58624870	     26.85699393	      0.46874297	      8.27555320	    -11.75179179	     -7.49999987	     34.47363177	     -7.42931365	     -7.41137122	     24.99338279	      0.43621682	      4.96119251	      3.73428954	     -7.49999987	    -18.12352662	      4.12456365	      2.46963715	    168.94194817	   -161.92394100	    205.20255081	     31.95287254	     68.19530652	    193.28483949	   -170.22156882	    218.15477576	     76.72348026	     93.29161490
      4.45000000	    -18.06894162	     -0.01604216	      0.48694954	     -0.19374045	      1.04573435	     -0.46453067	     34.32179312	     -2.68716227	     -6.73274661	     26.42931472	      0.46127856	      8.29957074	    -11.66757102	     -7.49999987	     33.97267307	     -7.35811539	     -7.36888536	     24.52201019	      0.42798982	      4.95484309	      3.82395513	     -7.49999987	    -17.72045984	      4.23136251	      2.48947909	    168.55570095	   -162.13977599	    206.38504097	     31.90189936	     68.12101246	    193.30632764	   -170.46328423	    218.88971771	     76.53986899	     94.18200054
      4.45416670	    -17.98656148	     -0.06129290	      0.63308417	     -0.19218919	      1.04625543	     -0.46431561	     33.89221608	     -2.66048712	     -6.91238160	     26.01544085	      0.45405510	      8.26199164	    -11.65529658	     -7.49999987	     33.59594609	     -7.30100595	     -7.27901121	     24.07330128	      0.42015837	      4.92844871	      3.93130969	     -7.49999987	    -17.16398965	      4.31891620	      2.47687227	    168.26969031	   -162.23828231	    208.41171254	     31.90620490	     67.81722247	    193.41926213	   -170.71909425	    219.78481843	     76.14833948	     94.78690806
      4.45833330	    -17.86116233	     -0.08393356	      0.78598531	     -0.19061816	      1.04706833	     -0.46411183	     33.40167904	     -2.65857001	     -7.11279161	     25.57733778	      0.44640876	      8.26818560	    -11.56734261	     -7.49999987	     33.15515446	     -7.21247071	     -7.19780426	     23.59908173	      0.41188168	      4.91784059	      4.00765243	     -7.49999987	    -16.70841598	      4.39395895	      2.41418400	    167.97219605	   -162.43645994	    209.54034529	     31.95080779	     67.38254466	    193.42345196	   -170.97955738	    220.43911971	     75.92218409	     95.12867565
      4.46250000	    -17.69728852	     -0.13739111	      0.96498104	     -0.18906455	      1.04788079	     -0.46397601	     32.84443689	     -2.63429446	     -7.35663436	     25.07906519	      0.43771226	      8.07281789	    -11.63234709	     -7.49999987	     32.70048532	     -7.14794922	     -7.11508329	     23.15188677	      0.40407665	      4.84967715	      4.12099279	     -7.49999987	    -16.39257770	      4.49647835	      2.21582504	    167.64293557	   -162.74103041	    209.64968931	     32.16150020	     67.14140901	    193.24868327	   -171.35676728	    220.63348627	     75.93222835	     95.51494429
      4.46666670	    -17.67885260	     -0.12737276	      1.14013487	     -0.18750217	      1.04840784	     -0.46387182	     32.48366152	     -2.69065064	     -7.60561388	     24.66196997	      0.43043258	      8.23487156	    -11.33984652	     -7.49999987	     32.35914568	     -7.00110826	     -6.99723310	     22.62976293	      0.39496387	      4.79536610	      4.14843623	     -7.49999987	    -15.72907814	      4.53811701	      2.39638617	    167.25686561	   -162.79881308	    211.05406323	     32.34391580	     67.06645620	    193.57740711	   -171.55195007	    221.83831722	     75.50482639	     96.23547306
      4.47083330	    -17.79390785	     -0.15137435	      1.33101943	     -0.18592169	      1.04825050	     -0.46379408	     32.27052162	     -2.71478348	     -7.83395382	     24.23766681	      0.42302709	      8.33351706	    -11.26670587	     -7.49999987	     32.20468515	     -6.88358591	     -6.85538156	     22.17186044	      0.38697197	      4.82347393	      4.16633557	     -7.49999987	    -15.05858641	      4.63624701	      2.23473504	    166.72898932	   -162.99813971	    211.00809146	     32.96550146	     66.89666706	    193.19587443	   -171.81077071	    221.90969381	     75.67193490	     95.44835110
      4.47500000	    -17.48132965	     -0.22854886	      1.58614304	     -0.18442571	      1.04943786	     -0.46374084	     31.51539292	     -2.69292095	     -8.20722194	     23.65810626	      0.41291185	      8.01197765	    -11.36282402	     -7.49999987	     31.59092069	     -6.82594469	     -6.76618399	     21.67453333	      0.37829197	      4.78937082	      4.37902797	     -7.49999987	    -14.89382564	      4.73309086	      2.11632014	    166.58559743	   -163.25429143	    211.36956004	     32.89665759	     66.76298476	    193.44923957	   -172.08766075	    222.60776135	     75.38912039	     95.96689633
      4.47916670	    -17.39305932	     -0.23630216	      1.79504085	     -0.18291175	      1.05032129	     -0.46369696	     31.04931079	     -2.74289744	     -8.55942256	     23.16397720	      0.40428767	      7.99376650	    -11.17278772	     -7.49999987	     31.19885485	     -6.69500620	     -6.65075439	     21.16794380	      0.36945032	      4.72264261	      4.46718257	     -7.49999987	    -14.43328991	      4.77000392	      2.16334813	    166.22606362	   -163.41387387	    211.93127851	     33.18224318	     66.63699017	    193.69631585	   -172.36837919	    223.51172401	     75.05267631	     96.31487919
      4.48333330	    -17.37589035	     -0.25598195	      1.99093155	     -0.18139365	      1.05103928	     -0.46358361	     30.66264517	     -2.77118635	     -8.91426070	     22.66040138	      0.39549861	      7.89798198	    -11.06652677	     -7.49999987	     30.88639755	     -6.58626211	     -6.53449295	     20.66818915	      0.36072795	      4.63931336	      4.58149146	     -7.49999987	    -13.89605529	      4.79941467	      2.12165963	    165.85062087	   -163.52635682	    212.10237201	     33.68267872	     66.42893711	    193.77323981	   -172.61815811	    224.13269834	     74.87056907	     96.01195255
      4.48750000	    -17.27044745	     -0.26410526	      2.18722197	     -0.17985280	      1.05180439	     -0.46345228	     30.19088728	     -2.80466641	     -9.25047353	     22.17993481	      0.38711289	      7.87701234	    -10.85746367	     -7.49999987	     30.47668877	     -6.47370687	     -6.42210866	     20.16880949	      0.35201213	      4.58935755	      4.69027206	     -7.49999987	    -13.45519650	      4.80999783	      2.21568568	    165.52237873	   -163.67096887	    212.46313357	     33.98126990	     66.44067478	    194.14211028	   -172.91585236	    225.11663372	     74.48990552	     96.42551912
